<mxfile host="app.diagrams.net" agent="Mozilla/5.0 (Macintosh; Intel Mac OS X 10_15_7) AppleWebKit/537.36 (KHTML, like Gecko) Chrome/136.0.0.0 Safari/537.36" version="26.2.14">
  <diagram name="Page-1" id="eUWHkqs1U4TDgpLOEqMK">
    <mxGraphModel dx="1426" dy="829" grid="1" gridSize="10" guides="1" tooltips="1" connect="1" arrows="1" fold="1" page="1" pageScale="1" pageWidth="827" pageHeight="1169" math="0" shadow="0">
      <root>
        <mxCell id="0" />
        <mxCell id="1" parent="0" />
        <mxCell id="nOwMmGQzK1aVl4cjpdNZ-1" value="Write&amp;nbsp;" style="ellipse;whiteSpace=wrap;html=1;" vertex="1" parent="1">
          <mxGeometry x="20" y="190" width="120" height="80" as="geometry" />
        </mxCell>
        <mxCell id="nOwMmGQzK1aVl4cjpdNZ-2" value="Node A" style="shape=parallelogram;perimeter=parallelogramPerimeter;whiteSpace=wrap;html=1;fixedSize=1;" vertex="1" parent="1">
          <mxGeometry x="270" y="200" width="210" height="60" as="geometry" />
        </mxCell>
        <mxCell id="nOwMmGQzK1aVl4cjpdNZ-3" value="" style="shape=flexArrow;endArrow=classic;html=1;rounded=0;entryX=0;entryY=0.5;entryDx=0;entryDy=0;" edge="1" parent="1">
          <mxGeometry width="50" height="50" relative="1" as="geometry">
            <mxPoint x="140" y="229.5" as="sourcePoint" />
            <mxPoint x="280" y="229.5" as="targetPoint" />
            <Array as="points">
              <mxPoint x="140" y="229.5" />
            </Array>
          </mxGeometry>
        </mxCell>
        <mxCell id="nOwMmGQzK1aVl4cjpdNZ-4" value="Delay Sync" style="shape=process;whiteSpace=wrap;html=1;backgroundOutline=1;" vertex="1" parent="1">
          <mxGeometry x="190" y="340" width="260" height="60" as="geometry" />
        </mxCell>
        <mxCell id="nOwMmGQzK1aVl4cjpdNZ-6" value="" style="shape=flexArrow;endArrow=classic;html=1;rounded=0;entryX=0.573;entryY=-0.017;entryDx=0;entryDy=0;entryPerimeter=0;" edge="1" parent="1" target="nOwMmGQzK1aVl4cjpdNZ-4">
          <mxGeometry width="50" height="50" relative="1" as="geometry">
            <mxPoint x="340" y="260" as="sourcePoint" />
            <mxPoint x="390" y="210" as="targetPoint" />
          </mxGeometry>
        </mxCell>
        <mxCell id="nOwMmGQzK1aVl4cjpdNZ-7" value="crafted by Prakash Karuppusamy" style="shape=dataStorage;whiteSpace=wrap;html=1;fixedSize=1;" vertex="1" parent="1">
          <mxGeometry x="350" y="740" width="470" height="80" as="geometry" />
        </mxCell>
        <mxCell id="nOwMmGQzK1aVl4cjpdNZ-8" value="Node B" style="shape=parallelogram;perimeter=parallelogramPerimeter;whiteSpace=wrap;html=1;fixedSize=1;" vertex="1" parent="1">
          <mxGeometry x="580" y="340" width="210" height="60" as="geometry" />
        </mxCell>
        <mxCell id="nOwMmGQzK1aVl4cjpdNZ-9" value="" style="shape=flexArrow;endArrow=classic;html=1;rounded=0;entryX=0;entryY=0.5;entryDx=0;entryDy=0;" edge="1" parent="1">
          <mxGeometry width="50" height="50" relative="1" as="geometry">
            <mxPoint x="450" y="369.5" as="sourcePoint" />
            <mxPoint x="590" y="369.5" as="targetPoint" />
            <Array as="points">
              <mxPoint x="450" y="369.5" />
            </Array>
          </mxGeometry>
        </mxCell>
        <mxCell id="nOwMmGQzK1aVl4cjpdNZ-10" value="Read from Node B = Stale ( Eventual)" style="shape=step;perimeter=stepPerimeter;whiteSpace=wrap;html=1;fixedSize=1;size=-70;" vertex="1" parent="1">
          <mxGeometry x="200" y="440" width="530" height="80" as="geometry" />
        </mxCell>
      </root>
    </mxGraphModel>
  </diagram>
</mxfile>
